PathFileType	4	(X/Y/Z)	Patient4_TMGait_0pt2_03_right_13.trc.trc
DataRate	CameraRate	NumFrames	NumMarkers	Units	OrigDataRate	OrigDataStartFrame	OrigNumFrames
46.822742474916	46.822742474916	4	33	mm	46.822742474916	18	       141
Frame#	Time	Sacral			L.Shoulder			Chest			R.Shoulder			Neck			R.ASIS			L.ASIS			R.Thigh.Superior			R.Thigh.Lateral			R.Thigh.Inferior			R.Patella			L.Thigh.Superior			L.Thigh.Lateral			L.Thigh.Inferior			L.Patella			L.Shank.Superior			L.Shank.Lateral			L.Shank.Inferior			R.Shank.Superior			R.Shank.Lateral			R.Shank.Inferior			R.Heel			R.Midfoot.Superior			R.Midfoot.Lateral			R.Toe			L.Heel			L.Midfoot.Lateral			L.Midfoot.Superior			L.Toe			L.Elbow			L.Wrist			R.Elbow			R.Wrist			
		X1	Y1	Z1	X2	Y2	Z2	X3	Y3	Z3	X4	Y4	Z4	X5	Y5	Z5	X6	Y6	Z6	X7	Y7	Z7	X8	Y8	Z8	X9	Y9	Z9	X10	Y10	Z10	X11	Y11	Z11	X12	Y12	Z12	X13	Y13	Z13	X14	Y14	Z14	X15	Y15	Z15	X16	Y16	Z16	X17	Y17	Z17	X18	Y18	Z18	X19	Y19	Z19	X20	Y20	Z20	X21	Y21	Z21	X22	Y22	Z22	X23	Y23	Z23	X24	Y24	Z24	X25	Y25	Z25	X26	Y26	Z26	X27	Y27	Z27	X28	Y28	Z28	X29	Y29	Z29	X30	Y30	Z30	X31	Y31	Z31	X32	Y32	Z32	X33	Y33	Z33	

18	28.183071428571	852.760961645919	1008.477964400057	414.240823546945	1076.720755532539	1441.445022956519	279.736497937054	1132.957900196937	1366.071941066990	458.035238761461	1009.729846962055	1437.517364344445	607.240147593960	1017.875836571367	1497.549828882216	431.073644105133	1058.654278015221	948.687980494271	572.912718442043	1092.018575580100	961.563330391325	299.839706735872	1131.765668977705	765.204885873349	550.825846798275	1075.779822814799	649.048042908233	621.362541291184	1163.000788130802	602.531828637554	546.244078147920	1188.779139507484	513.633240592948	568.100969887678	1119.369376902349	740.068045577907	340.304233705101	1025.076022489862	618.158563010967	269.441735173265	1101.157296735879	546.528813639389	350.491462579591	1095.524236651463	477.403667410250	361.416146958244	1061.065911906965	405.315096911807	351.658772524547	965.295408183832	298.110577785060	296.830672759092	996.113724566871	185.657340895690	375.510347368022	1155.480566039398	426.757166118977	580.977808866572	1080.213995185856	329.666783571872	649.821723561397	1130.459495835223	228.801403052187	603.178168441449	1003.526494745459	54.771424188164	586.775881906671	1173.204962114330	112.382445288522	619.345642515200	1090.052309199858	45.847850328793	657.398387067403	1295.212454573887	68.062734640956	643.520272506387	853.652094325295	38.003187958523	413.821364311081	928.641525013184	35.936345014817	333.878965895317	1012.136890950818	95.312860373442	363.508223801470	1140.584843348959	43.882384203960	334.833709020520	1194.857415855294	1134.743925837463	123.508521269296	1430.040109164401	1041.733519692437	187.394919544368	826.998831906846	1134.184823605886	675.094400264304	786.254776073365	875.527296358450	673.812319332413	
19	28.204428571429	853.321190734726	1008.954488474455	415.203436044533	1079.210935557012	1441.972529771560	284.428010568820	1132.612332619837	1366.498816025805	463.455996427337	1007.524022660188	1438.560861316964	610.763147274573	1018.119306163005	1497.907013197306	435.036122063067	1056.980138548359	948.382916078734	576.542029147957	1093.707081001147	962.205361545744	303.895074345336	1128.558905981021	763.556845598386	555.710812146851	1069.821115346322	647.440585812309	624.515115981916	1157.941064482438	600.804941306215	550.645691908206	1183.089807740755	513.740831838576	571.098479238139	1117.489767702319	739.432023427821	343.298700056490	1022.043514303604	619.225240988324	270.323768630487	1095.970064474316	546.126707983824	351.627712740431	1089.080645308724	477.438531835476	362.156543656433	1055.330783898899	405.825273242678	351.996531036140	960.139429114477	298.312345250989	296.788316643574	991.273138228522	185.952338912854	375.587942158541	1153.271561332047	426.430634405417	583.414809145887	1081.674623511618	326.056415384756	651.974309810568	1135.834224867122	227.204355966434	604.848453258042	1015.044106589052	49.346092889225	587.960028607477	1183.344248202184	111.407896289617	620.299193784893	1101.983231365804	42.418763822185	658.231453097106	1306.791392078075	70.079242592246	643.950669710804	849.291324003774	37.935235955062	413.755306488317	924.274450987922	35.866987430427	333.822355649582	1007.725234520253	95.325510922957	363.466118944480	1136.206706102445	44.023366406025	334.885568338017	1203.107001786731	1139.922377416996	126.265607303617	1443.424502498684	1064.568991933925	192.385264935264	820.294627089166	1138.197361070087	673.651818015218	778.020255329080	879.705156818188	669.692470903225	
20	28.225785714286	854.110123969529	1008.905346071131	416.571774029505	1081.552374140450	1442.075649900483	289.466725090921	1132.380867499236	1366.491794023966	469.112854057170	1005.652646386496	1439.077815029878	614.697351895389	1018.411803491407	1497.829109236545	439.394785006687	1055.672073771355	947.581175698894	580.334604981647	1095.568116464858	962.511467731094	308.149731174490	1125.962486930176	761.533176168592	560.629519494574	1064.496814928714	645.325529371011	627.381221974797	1153.666260738516	598.780020992851	554.799981864952	1177.925624717936	513.204666086296	573.762997351117	1116.173034399288	738.646423679655	346.401059292526	1019.707365912263	620.025950049822	271.457231173059	1091.586448287444	545.570983132306	352.949459886292	1083.526877075713	477.232438505748	363.078751007186	1050.301426788814	406.081771690308	352.531614888878	955.471115536445	298.483213578059	296.882557984764	986.680551062402	186.119702343532	375.727081644762	1150.963527422365	425.515936886777	585.600237444365	1082.200130518659	322.700612756861	653.719933058515	1139.334555624834	225.564946138873	606.196521373672	1023.222474117036	45.568206580362	588.673988673612	1190.529668845060	110.318657621319	621.099308963114	1110.223043696135	39.992572883154	658.849315517442	1314.687095390599	70.728590433765	644.544447193733	844.943221768270	37.885692027531	413.680938911556	919.918616074898	35.800801100943	333.768279889716	1003.336517837892	95.329126511235	363.439248616352	1131.845218153532	44.128403990010	334.934840969293	1210.999425861830	1144.599023757031	129.632327714687	1455.189018864637	1086.741878772545	197.457451048489	815.621385075423	1140.662527825551	672.916235727334	773.078852656321	882.096604766946	666.012067552720	
21	28.247142857143	855.141855517181	1008.412191870444	418.366234588626	1083.759588169048	1441.830093332965	294.844330440065	1132.300653913471	1366.128630405077	475.006259290501	1004.122854697133	1439.120739538012	619.049904711220	1018.773077602227	1497.383537690954	444.146875901686	1054.783574217304	946.379604540222	584.295390996321	1097.620196503243	962.544107546397	312.594843177605	1124.106386280414	759.291783542735	565.452208493636	1060.061817806130	642.865475916283	629.918603387766	1150.358777385931	596.624450434324	558.594610820235	1173.522019253591	512.157725271472	576.032630279292	1115.447068925111	737.735013623048	349.607687590937	1018.051072145275	620.583010617419	272.884491246946	1088.010575967055	544.880608427728	354.491600902199	1078.878339802674	476.801977456922	364.225816010662	1045.973742480217	406.100419057244	353.303171930973	951.279002951550	298.646570371479	297.143661340713	982.333642874882	186.168785550226	375.936100041000	1148.767228464597	424.094409336660	587.480392346317	1081.988939124246	319.604101124073	655.060498723666	1141.136352843385	223.813585335618	607.158350377214	1028.135198520781	43.183473680340	588.918808953426	1194.906649191019	109.017104740862	621.646314893743	1114.935806794664	38.377298953644	659.231729692176	1319.180144465003	69.997340304469	645.161617764553	840.608523663451	37.855215148162	413.597307847086	915.576393660295	35.739287442683	333.717063825365	998.974169854575	95.327558271281	363.425378946510	1127.501857617016	44.197085486340	334.979286052365	1218.498163413438	1148.806477285270	133.569010903177	1465.372168511793	1107.991648270340	202.611842959904	812.802363349828	1141.640702895164	672.974786797440	771.025204894454	882.816632415631	662.980795238756	
